<?xml version="1.0" encoding="utf-8"?>
<svg version="1.1" xmlns:xlink="http://www.w3.org/1999/xlink" width="13px" height="13px" viewBox="2057 952  13 13" xmlns="http://www.w3.org/2000/svg">
  <path d="M 2063.5 952  C 2067.14 952  2070 954.86  2070 958.5  C 2070 962.14  2067.14 965  2063.5 965  C 2059.86 965  2057 962.14  2057 958.5  C 2057 954.86  2059.86 952  2063.5 952  Z " fill-rule="nonzero" fill="#f0f0f0" stroke="none" />
  <path d="M 2063.5 952.5  C 2066.86 952.5  2069.5 955.14  2069.5 958.5  C 2069.5 961.86  2066.86 964.5  2063.5 964.5  C 2060.14 964.5  2057.5 961.86  2057.5 958.5  C 2057.5 955.14  2060.14 952.5  2063.5 952.5  Z " stroke-width="1" stroke="#797979" fill="none" />
  <path d="M 2063.5 961.75  C 2061.68 961.75  2060.25 960.32  2060.25 958.5  C 2060.25 956.68  2061.68 955.25  2063.5 955.25  C 2065.32 955.25  2066.75 956.68  2066.75 958.5  C 2066.75 960.32  2065.32 961.75  2063.5 961.75  " fill-rule="nonzero" fill="#797979" stroke="none" />
</svg>