<?xml version="1.0" encoding="utf-8"?>
<svg version="1.1" xmlns:xlink="http://www.w3.org/1999/xlink" width="13px" height="13px" viewBox="2057 1008  13 13" xmlns="http://www.w3.org/2000/svg">
  <path d="M 2063.5 1008  C 2067.14 1008  2070 1010.86  2070 1014.5  C 2070 1018.14  2067.14 1021  2063.5 1021  C 2059.86 1021  2057 1018.14  2057 1014.5  C 2057 1010.86  2059.86 1008  2063.5 1008  Z " fill-rule="nonzero" fill="#f0f0f0" stroke="none" />
  <path d="M 2063.5 1008.5  C 2066.86 1008.5  2069.5 1011.14  2069.5 1014.5  C 2069.5 1017.86  2066.86 1020.5  2063.5 1020.5  C 2060.14 1020.5  2057.5 1017.86  2057.5 1014.5  C 2057.5 1011.14  2060.14 1008.5  2063.5 1008.5  Z " stroke-width="1" stroke="#797979" fill="none" />
  <path d="M 2063.5 1017.75  C 2061.68 1017.75  2060.25 1016.32  2060.25 1014.5  C 2060.25 1012.68  2061.68 1011.25  2063.5 1011.25  C 2065.32 1011.25  2066.75 1012.68  2066.75 1014.5  C 2066.75 1016.32  2065.32 1017.75  2063.5 1017.75  " fill-rule="nonzero" fill="#797979" stroke="none" />
</svg>