<?xml version="1.0" encoding="utf-8"?>
<svg version="1.1" xmlns:xlink="http://www.w3.org/1999/xlink" width="13px" height="13px" viewBox="2057 979  13 13" xmlns="http://www.w3.org/2000/svg">
  <path d="M 2063.5 979  C 2067.14 979  2070 981.86  2070 985.5  C 2070 989.14  2067.14 992  2063.5 992  C 2059.86 992  2057 989.14  2057 985.5  C 2057 981.86  2059.86 979  2063.5 979  Z " fill-rule="nonzero" fill="#f0f0f0" stroke="none" />
  <path d="M 2063.5 979.5  C 2066.86 979.5  2069.5 982.14  2069.5 985.5  C 2069.5 988.86  2066.86 991.5  2063.5 991.5  C 2060.14 991.5  2057.5 988.86  2057.5 985.5  C 2057.5 982.14  2060.14 979.5  2063.5 979.5  Z " stroke-width="1" stroke="#797979" fill="none" />
  <path d="M 2063.5 988.75  C 2061.68 988.75  2060.25 987.32  2060.25 985.5  C 2060.25 983.68  2061.68 982.25  2063.5 982.25  C 2065.32 982.25  2066.75 983.68  2066.75 985.5  C 2066.75 987.32  2065.32 988.75  2063.5 988.75  " fill-rule="nonzero" fill="#797979" stroke="none" />
</svg>