<?xml version="1.0" encoding="utf-8"?>
<svg version="1.1" xmlns:xlink="http://www.w3.org/1999/xlink" width="285px" height="206px" xmlns="http://www.w3.org/2000/svg">
  <g transform="matrix(1 0 0 1 -96 -1442 )">
    <path d="M 96 1442  L 381 1442  L 381 1648  L 96 1648  L 96 1442  " fill-rule="nonzero" fill="#cccccc" stroke="none" />
    <path d="M 110 1456  L 367 1456  L 367 1634  L 110 1634  L 110 1456  " fill-rule="nonzero" fill="#ffffff" stroke="none" />
    <path d="M 259.65000000000003 1503.8000000000002  C 250.99800000000002 1503.8000000000002  244.20000000000002 1497.0020000000002  244.20000000000002 1488.3500000000001  C 244.20000000000002 1479.698  250.99800000000002 1472.9  259.65000000000003 1472.9  C 268.302 1472.9  275.1 1479.698  275.1 1488.3500000000001  C 275.1 1497.0020000000002  268.302 1503.8000000000002  259.65000000000003 1503.8000000000002  " fill-rule="nonzero" fill="#cccccc" stroke="none" />
    <path d="M 115 1629  L 115 1536.6  L 176.75 1494.6  L 263.2 1556.141052631579  L 312.6 1519.8  L 362 1556.141052631579  L 362 1629  L 115 1629  " fill-rule="nonzero" fill="#169bd5" stroke="none" />
  </g>
</svg>