<?xml version="1.0" encoding="utf-8"?>
<svg version="1.1" xmlns:xlink="http://www.w3.org/1999/xlink" width="41px" height="41px" xmlns="http://www.w3.org/2000/svg">
  <g transform="matrix(1 0 0 1 -9 -10 )">
    <path d="M 29.5 10  C 40.980000000000004 10  50 19.02  50 30.5  C 50 41.980000000000004  40.980000000000004 51  29.5 51  C 18.02 51  9 41.980000000000004  9 30.5  C 9 19.02  18.02 10  29.5 10  Z " fill-rule="nonzero" fill="#ffffff" stroke="none" />
    <path d="M 29.5 10.5  C 40.7 10.5  49.5 19.299999999999997  49.5 30.5  C 49.5 41.7  40.7 50.5  29.5 50.5  C 18.299999999999997 50.5  9.5 41.7  9.5 30.5  C 9.5 19.299999999999997  18.299999999999997 10.5  29.5 10.5  Z " stroke-width="1" stroke="#797979" fill="none" />
  </g>
</svg>